<svg xmlns="http://www.w3.org/2000/svg" width="920" height="720" viewBox="0 0 920 720" fill="none">
  <defs>
    <linearGradient id="screen" x1="324" y1="231" x2="625" y2="480" gradientUnits="userSpaceOnUse"><stop stop-color="#F9FCFF"/><stop offset="1" stop-color="#DFEBFF"/></linearGradient>
    <linearGradient id="blue" x1="332" y1="438" x2="590" y2="537" gradientUnits="userSpaceOnUse"><stop stop-color="#75A7FF"/><stop offset=".5" stop-color="#3675F3"/><stop offset="1" stop-color="#1B53C8"/></linearGradient>
    <linearGradient id="edge" x1="297" y1="504" x2="681" y2="545" gradientUnits="userSpaceOnUse"><stop stop-color="#DAE7FB"/><stop offset=".48" stop-color="#FFF"/><stop offset="1" stop-color="#B9CBE8"/></linearGradient>
    <linearGradient id="violet" x1="606" y1="142" x2="711" y2="257" gradientUnits="userSpaceOnUse"><stop stop-color="#D4C5FF"/><stop offset="1" stop-color="#8F71EC"/></linearGradient>
    <linearGradient id="mint" x1="193" y1="267" x2="294" y2="374" gradientUnits="userSpaceOnUse"><stop stop-color="#B8F0DC"/><stop offset="1" stop-color="#4CBF9A"/></linearGradient>
    <linearGradient id="orange" x1="719" y1="319" x2="821" y2="423" gradientUnits="userSpaceOnUse"><stop stop-color="#FFE1B3"/><stop offset="1" stop-color="#F2A44A"/></linearGradient>
    <linearGradient id="rocket" x1="629" y1="70" x2="741" y2="180" gradientUnits="userSpaceOnUse"><stop stop-color="#FFF"/><stop offset=".5" stop-color="#C9DFFF"/><stop offset="1" stop-color="#79A9F9"/></linearGradient>
    <radialGradient id="glow" cx="0" cy="0" r="1" gradientTransform="matrix(0 298 -340 0 463 348)" gradientUnits="userSpaceOnUse"><stop stop-color="#DCE9FF"/><stop offset="1" stop-color="#F7FAFF" stop-opacity="0"/></radialGradient>
    <filter id="shadow" x="238" y="183" width="466" height="405" color-interpolation-filters="sRGB" filterUnits="userSpaceOnUse"><feGaussianBlur stdDeviation="18"/></filter>
    <filter id="float" x="-30%" y="-30%" width="160%" height="170%" color-interpolation-filters="sRGB"><feDropShadow dx="0" dy="12" stdDeviation="12" flood-color="#315A9E" flood-opacity=".14"/></filter>
  </defs>
  <ellipse cx="461" cy="366" rx="365" ry="299" fill="url(#glow)"/>
  <ellipse cx="460" cy="556" rx="282" ry="29" fill="#BED0EF" fill-opacity=".32" filter="url(#shadow)"/>
  <path d="M215 515c95 22 393 22 491-1" stroke="#D3E0F3" stroke-width="2" stroke-linecap="round" stroke-dasharray="3 9"/>
  <!-- floating product cards -->
  <g filter="url(#float)" transform="rotate(-8 240 318)"><rect x="177" y="257" width="126" height="126" rx="28" fill="url(#mint)"/><rect x="184" y="264" width="112" height="112" rx="23" fill="#F4FFFA" fill-opacity=".48"/><path d="m211 318 20 20 41-46" stroke="#087B62" stroke-width="10" stroke-linecap="round" stroke-linejoin="round"/><circle cx="240" cy="319" r="41" stroke="#FFF" stroke-opacity=".72" stroke-width="3"/></g>
  <g filter="url(#float)" transform="rotate(7 671 205)"><rect x="611" y="144" width="121" height="121" rx="27" fill="url(#violet)"/><rect x="618" y="151" width="107" height="107" rx="22" fill="#FFF" fill-opacity=".23"/><path d="M645 224v-28m22 28v-47m22 47v-36" stroke="#FFF" stroke-width="10" stroke-linecap="round"/><path d="m643 185 23-15 18 6 16-17" stroke="#FFF" stroke-width="5" stroke-linecap="round" stroke-linejoin="round"/><circle cx="701" cy="158" r="4" fill="#FFF"/></g>
  <g filter="url(#float)" transform="rotate(8 769 366)"><rect x="713" y="310" width="112" height="112" rx="26" fill="url(#orange)"/><rect x="720" y="317" width="98" height="98" rx="21" fill="#FFF" fill-opacity=".28"/><path d="m744 380 18-20 15 9 19-28" stroke="#9A5718" stroke-width="8" stroke-linecap="round" stroke-linejoin="round"/><path d="M785 341h11v11" stroke="#9A5718" stroke-width="7" stroke-linecap="round" stroke-linejoin="round"/><circle cx="764" cy="357" r="3" fill="#FFF"/></g>
  <g filter="url(#float)" transform="rotate(-9 171 451)"><rect x="116" y="398" width="110" height="110" rx="26" fill="#E6EEFF"/><rect x="123" y="405" width="96" height="96" rx="20" fill="#FFF"/><path d="M149 449h44m-22-22v44m-15-35 30 30m0-30-30 30" stroke="#4078E7" stroke-width="5" stroke-linecap="round"/><circle cx="171" cy="449" r="29" stroke="#A9C2F3" stroke-width="3"/></g>
  <!-- compact rocket -->
  <g filter="url(#float)" transform="rotate(32 747 130)"><path d="M746 69c31 28 39 70 25 115l-27 45-28-45c-15-45-7-87 24-115Z" fill="url(#rocket)" stroke="#4784E9" stroke-width="4"/><path d="m716 183-22 24 21 6 18-23m38-7 23 24-22 5-18-22" fill="#4C83E5" stroke="#3266C8" stroke-width="3" stroke-linejoin="round"/><circle cx="746" cy="125" r="16" fill="#2359BA"/><circle cx="746" cy="125" r="10" fill="#BFE7FF"/><path d="M733 223c4 17 9 26 13 31 5-5 10-14 14-31" fill="#FFAA54"/><path d="M739 224c2 11 5 17 7 20 3-3 6-9 8-20" fill="#FFE486"/></g>
  <!-- laptop -->
  <g filter="url(#float)"><path d="M316 229c0-13 11-24 24-24h248c13 0 24 11 24 24v236H316V229Z" fill="#163A78"/><path d="M327 232c0-9 7-16 16-16h242c9 0 16 7 16 16v219H327V232Z" fill="url(#screen)"/><rect x="344" y="234" width="240" height="198" rx="13" fill="#FFF" fill-opacity=".7" stroke="#FFF" stroke-width="2"/>
    <rect x="363" y="253" width="202" height="13" rx="6.5" fill="#E9F0FD"/><circle cx="375" cy="259.5" r="3" fill="#70A0F5"/><circle cx="386" cy="259.5" r="3" fill="#A7BDF0"/><rect x="363" y="282" width="82" height="130" rx="12" fill="#F0F5FF"/><rect x="454" y="282" width="111" height="60" rx="12" fill="#EFF6FF"/><rect x="454" y="352" width="111" height="60" rx="12" fill="#F7F9FE"/>
    <circle cx="404" cy="320" r="19" fill="#D9E7FF"/><path d="M392 321c0-8 5-13 12-13s12 5 12 13v8h-24v-8Zm12-16a7 7 0 1 0 0-14 7 7 0 0 0 0 14Z" fill="#3978EA"/><path d="M470 324v-16m19 16v-27m19 27v-20m19 20v-34" stroke="#548AF1" stroke-width="8" stroke-linecap="round"/><path d="m469 375 13 13 17-19 13 10 24-19" stroke="#3C80E9" stroke-width="5" stroke-linecap="round" stroke-linejoin="round"/><path d="M501 457h38l24 35H384l22-35h95Z" fill="#E7EEFA"/><rect x="284" y="462" width="364" height="22" rx="11" fill="url(#edge)" stroke="#CAD8ED" stroke-width="2"/><path d="M244 485h444l54 29c5 3 3 10-4 11H237c-7 0-9-8-3-11l10-6v-23Z" fill="url(#edge)" stroke="#C6D5EC" stroke-width="2"/><path d="M410 495h111l-9 8h-91l-11-8Z" fill="#BBCBE3"/></g>
  <!-- small book stack and leaf -->
  <g filter="url(#float)"><path d="M192 535c0-9 7-16 16-16h137v40H208c-9 0-16-7-16-16v-8Z" fill="#3C7DF0"/><path d="M206 528h123" stroke="#AFCBFF" stroke-width="3" stroke-linecap="round"/><path d="M208 559h143v42H208c-10 0-17-8-17-17v-8c0-9 7-17 17-17Z" fill="#285FD3"/><path d="M208 570h126" stroke="#AFCBFF" stroke-width="3" stroke-linecap="round"/><path d="M222 600h137v39H222c-10 0-17-8-17-17v-5c0-9 7-17 17-17Z" fill="#193F9F"/><path d="M222 611h115" stroke="#91B3FA" stroke-width="3" stroke-linecap="round"/>
    <path d="M264 517c-18-35-17-69 4-91 23 25 26 57 4 91m-6-2c-32-12-52-34-53-61 32 8 51 26 53 61m7 1c24-22 51-28 74-15-18 23-42 30-74 15" fill="#72CBA4" stroke="#359C75" stroke-width="3" stroke-linejoin="round"/><path d="M265 516v-59m2 37-35-26m36 35 42-24" stroke="#258860" stroke-width="3" stroke-linecap="round"/></g>
  <!-- orbiting sparkles -->
  <path d="M523 127c4 14 10 20 24 24-14 4-20 10-24 24-4-14-10-20-24-24 14-4 20-10 24-24Z" fill="#FFD474"/><path d="M148 205c3 9 7 13 16 16-9 3-13 7-16 16-3-9-7-13-16-16 9-3 13-7 16-16Z" fill="#83A9F5"/><circle cx="790" cy="258" r="5" fill="#75D4B4"/><circle cx="346" cy="156" r="4" fill="#FFBE70"/><circle cx="604" cy="555" r="4" fill="#75D4B4"/>
</svg>
