<svg xmlns="http://www.w3.org/2000/svg" viewBox="0 0 160 160" fill="none">
  <defs>
    <linearGradient id="a" x1="43" y1="46" x2="119" y2="126" gradientUnits="userSpaceOnUse"><stop stop-color="#82FFE2"/><stop offset=".48" stop-color="#13D5B0"/><stop offset="1" stop-color="#00A885"/></linearGradient>
    <linearGradient id="b" x1="56" y1="44" x2="108" y2="118" gradientUnits="userSpaceOnUse"><stop stop-color="#ECFFF9"/><stop offset="1" stop-color="#38D8B2"/></linearGradient>
    <filter id="s" x="12" y="17" width="136" height="133" color-interpolation-filters="sRGB"><feGaussianBlur stdDeviation="8"/></filter>
  </defs>
  <ellipse cx="79" cy="123" fill="#11C9A8" opacity=".2" rx="46" ry="9" filter="url(#s)"/>
  <path d="M55 39c-5 1-10 7-12 14-5 17 9 43 25 59 16 15 42 26 56 17 5-3 9-9 8-14l-3-14-22-10-12 13c-12-5-27-20-33-33l12-12-10-22-9 2Z" fill="url(#a)" stroke="#DFFFF7" stroke-width="3" stroke-linejoin="round"/>
  <path d="M57 48c-2 1-5 5-5 8-1 5 2 12 5 18 2 5 6 12 10 17l8-9c-5-6-9-12-11-18-1-4-2-8 0-11l-7-5Z" fill="url(#b)" opacity=".9"/>
  <path d="M102 48c10 3 18 11 21 21M105 36c16 4 28 17 32 32" stroke="#39D9B5" stroke-linecap="round" stroke-width="5" opacity=".8"/>
  <path d="M99 54c6 2 11 7 13 13" stroke="#A5FFEB" stroke-linecap="round" stroke-width="3"/>
</svg>
